<svg xmlns="http://www.w3.org/2000/svg" width="512" height="512" viewBox="0 0 512 512" role="img" aria-label="Rotifolk">
  <defs>
    <linearGradient id="bg" x1="70" y1="40" x2="442" y2="476" gradientUnits="userSpaceOnUse">
      <stop stop-color="#7a1f3d"/>
      <stop offset=".56" stop-color="#2a1119"/>
      <stop offset="1" stop-color="#7a1f3d"/>
    </linearGradient>
    <radialGradient id="glow" cx="72%" cy="23%" r="68%">
      <stop stop-color="#d6a84f" stop-opacity=".72"/>
      <stop offset=".58" stop-color="#2dd4bf" stop-opacity=".24"/>
      <stop offset="1" stop-color="#2a1119" stop-opacity="0"/>
    </radialGradient>
    <filter id="shadow" x="-20%" y="-20%" width="140%" height="140%">
      <feDropShadow dx="0" dy="18" stdDeviation="22" flood-color="#2a1119" flood-opacity=".34"/>
    </filter>
  </defs>
  <rect width="512" height="512" rx="116" fill="url(#bg)"/>
  <rect width="512" height="512" rx="116" fill="url(#glow)"/>
  <path d="M46 342C154 278 238 414 466 292" fill="none" stroke="#fbf3e2" stroke-opacity=".1" stroke-width="26" stroke-linecap="round"/>
  <g filter="url(#shadow)">
        <g transform="translate(0 0) scale(1)">
          <circle cx="256" cy="256" r="130" fill="none" stroke="#fbf3e2" stroke-width="24"/>
          <path d="M347 164a130 130 0 0 1 19 164M165 348a130 130 0 0 1-19-164" fill="none" stroke="#d6a84f" stroke-width="24" stroke-linecap="round"/>
          <path d="M210 156h92l-15 122a31 31 0 0 1-62 0z" fill="#fbf3e2"/>
          <path d="M221 229h70" stroke="#2dd4bf" stroke-width="28" stroke-linecap="round"/>
          <path d="M256 310v54M222 364h68" stroke="#fbf3e2" stroke-width="20" stroke-linecap="round"/>
          <circle cx="376" cy="256" r="28" fill="#2dd4bf"/><circle cx="136" cy="256" r="28" fill="#d6a84f"/>
        </g></g>
</svg>
