<svg xmlns="http://www.w3.org/2000/svg" width="1200" height="630" viewBox="0 0 1200 630" role="img" aria-label="Rotifolk">
  <defs>
    <linearGradient id="bg" x1="0" y1="0" x2="1200" y2="630" gradientUnits="userSpaceOnUse">
      <stop stop-color="#2a1119"/>
      <stop offset=".58" stop-color="#7a1f3d"/>
      <stop offset="1" stop-color="#d6a84f"/>
    </linearGradient>
    <radialGradient id="halo" cx="78%" cy="19%" r="62%">
      <stop stop-color="#2dd4bf" stop-opacity=".82"/>
      <stop offset=".56" stop-color="#d6a84f" stop-opacity=".22"/>
      <stop offset="1" stop-color="#2a1119" stop-opacity="0"/>
    </radialGradient>
    <filter id="soft" x="-20%" y="-20%" width="140%" height="140%">
      <feDropShadow dx="0" dy="18" stdDeviation="24" flood-color="#2a1119" flood-opacity=".26"/>
    </filter>
  </defs>
  <rect width="1200" height="630" fill="url(#bg)"/>
  <rect width="1200" height="630" fill="url(#halo)"/>
  <path d="M0 498C166 430 340 458 512 512c176 54 336 44 504-54 72-42 126-57 184-54v226H0Z" fill="#fbf3e2" opacity=".12"/>
  <path d="M74 96h216M74 542h412" stroke="#fbf3e2" stroke-opacity=".16" stroke-width="16" stroke-linecap="round"/>
  <g transform="translate(84 86)" filter="url(#soft)">
    <svg width="104" height="104" viewBox="0 0 512 512">
  <rect width="512" height="512" rx="116" fill="url(#bg)"/>
  <rect width="512" height="512" rx="116" fill="url(#glow)"/>
  <path d="M46 342C154 278 238 414 466 292" fill="none" stroke="#fbf3e2" stroke-opacity=".1" stroke-width="26" stroke-linecap="round"/>
  <g filter="url(#shadow)">
        <g transform="translate(0 0) scale(1)">
          <circle cx="256" cy="256" r="130" fill="none" stroke="#fbf3e2" stroke-width="24"/>
          <path d="M347 164a130 130 0 0 1 19 164M165 348a130 130 0 0 1-19-164" fill="none" stroke="#d6a84f" stroke-width="24" stroke-linecap="round"/>
          <path d="M210 156h92l-15 122a31 31 0 0 1-62 0z" fill="#fbf3e2"/>
          <path d="M221 229h70" stroke="#2dd4bf" stroke-width="28" stroke-linecap="round"/>
          <path d="M256 310v54M222 364h68" stroke="#fbf3e2" stroke-width="20" stroke-linecap="round"/>
          <circle cx="376" cy="256" r="28" fill="#2dd4bf"/><circle cx="136" cy="256" r="28" fill="#d6a84f"/>
        </g></g>
</svg>
  </g>
  <text x="214" y="148" font-family="Inter, Pretendard, system-ui, -apple-system, BlinkMacSystemFont, 'Segoe UI', sans-serif" font-size="34" font-weight="900" fill="#fbf3e2">Rotifolk</text>
  <text x="92" y="270" font-family="Inter, Pretendard, system-ui, -apple-system, BlinkMacSystemFont, 'Segoe UI', sans-serif" font-size="62" font-weight="900" fill="#fbf3e2">Rotifolk</text>
  <text x="94" y="335" font-family="Pretendard, system-ui, -apple-system, BlinkMacSystemFont, 'Segoe UI', sans-serif" font-size="27" font-weight="700" fill="#fbf3e2" opacity=".86">와인, 커피, 차 라운드를 통해 낯선 사람들이 자연스럽게 친해지는 모임 플랫폼</text>
  <g transform="translate(92 485)"><rect width="166" height="44" rx="22" fill="#fbf3e2" opacity=".13" stroke="#fbf3e2" stroke-opacity=".26"/><text x="83" y="28" text-anchor="middle" font-size="15" font-weight="800" fill="#fbf3e2">5분 라운드</text></g><g transform="translate(282 485)"><rect width="166" height="44" rx="22" fill="#fbf3e2" opacity=".13" stroke="#fbf3e2" stroke-opacity=".26"/><text x="83" y="28" text-anchor="middle" font-size="15" font-weight="800" fill="#fbf3e2">취향 매칭</text></g><g transform="translate(472 485)"><rect width="166" height="44" rx="22" fill="#fbf3e2" opacity=".13" stroke="#fbf3e2" stroke-opacity=".26"/><text x="83" y="28" text-anchor="middle" font-size="15" font-weight="800" fill="#fbf3e2">소셜 테이블</text></g>
  <g filter="url(#soft)">
    <g transform="translate(722 116)">
      <rect width="342" height="330" rx="46" fill="#fbf3e2" opacity=".94"/>
      <rect x="34" y="36" width="176" height="22" rx="11" fill="#2a1119" opacity=".84"/>
      <rect x="34" y="82" width="252" height="14" rx="7" fill="#2a1119" opacity=".22"/>
      <rect x="34" y="112" width="206" height="14" rx="7" fill="#2a1119" opacity=".14"/>
      <g transform="translate(34 156) scale(.56)">
        <g transform="translate(0 0) scale(1)">
          <circle cx="256" cy="256" r="130" fill="none" stroke="#fbf3e2" stroke-width="24"/>
          <path d="M347 164a130 130 0 0 1 19 164M165 348a130 130 0 0 1-19-164" fill="none" stroke="#d6a84f" stroke-width="24" stroke-linecap="round"/>
          <path d="M210 156h92l-15 122a31 31 0 0 1-62 0z" fill="#fbf3e2"/>
          <path d="M221 229h70" stroke="#2dd4bf" stroke-width="28" stroke-linecap="round"/>
          <path d="M256 310v54M222 364h68" stroke="#fbf3e2" stroke-width="20" stroke-linecap="round"/>
          <circle cx="376" cy="256" r="28" fill="#2dd4bf"/><circle cx="136" cy="256" r="28" fill="#d6a84f"/>
        </g></g>
      <rect x="216" y="177" width="72" height="118" rx="24" fill="#d6a84f" opacity=".88"/>
      <rect x="104" y="252" width="184" height="22" rx="11" fill="#2dd4bf" opacity=".82"/>
    </g></g>
</svg>
